<svg width="200" height="50" viewBox="0 0 175 44" xmlns="http://www.w3.org/2000/svg"><path d="M157.823 7.515h-1.292v6.81h1.292v-6.81Zm-6.264-2.119h-1.292v8.864h1.292V5.396Zm-6.264-1.092h-1.291v9.988h1.291V4.304Zm-6.231.77h-1.292v9.218h1.292V5.074ZM132.8 3.115h-1.292v11.177h1.292V3.115Zm-13.787 4.529V2.762h1.291V7.74s-.71-.064-1.291-.096Zm-6.264 1.413V3.918h1.292v4.4s-.679.257-1.292.739Zm-4.972-3.918h-1.292v9.153h1.292V5.139Zm-6.232-.835h-1.291v9.988h1.291V4.304ZM95.281 5.62H93.99v8.672h1.291V5.62Zm-6.263 2.795h-1.292v5.877h1.292V8.415Zm0 26.111h-1.292v1.091h1.292v-1.091Zm-6.232-23.671h-1.292v3.437h1.292v-3.437Zm0 23.671h-1.292v2.665h1.292v-2.665Zm-6.264 0h-1.291v4.367h1.291v-4.367Zm-6.232 0H69v7.162h1.291v-7.162Zm-6.263 0h-1.292v7.258h1.292v-7.258Zm-6.264 0H56.47v8.864h1.292v-8.864Zm-6.232 0H50.24v8.125h1.291v-8.125Zm-6.263 0h-1.292v6.648h1.292v-6.648Zm-6.264 0h-1.292v7.097h1.292v-7.097Zm-6.232 0h-1.291v8.125h1.291v-8.125Zm-6.264.032h-1.291v6.648h1.291v-6.648Zm-6.264 0h-1.291v5.299h1.291v-5.3Zm-6.231 0H12.72v2.633h1.292v-2.633Z" fill="#0095D4"/><path d="M26.605 14.324c.84-.931 1.68-1.863 2.519-2.666a10.742 10.742 0 0 1 2.615-1.862c1.291-.61 2.615-.61 4.004-.514 1.42.064 2.744-.097 3.906-.964.904-.674 1.615-1.541 2.26-2.473 1.453-2.023 2.81-4.625 5.586-4.914 3.552-.385 6.458 2.28 9.364 3.822 1.42.771 2.906 1.253 4.552 1.381 1.68.129 3.261.129 4.876.707 2.744 1.028 4.908 3.18 6.651 5.428a39.364 39.364 0 0 1 1.453 2.023l1.162.032c-.193-.289-.387-.61-.58-.9-1.583-2.312-3.39-4.528-5.716-6.133a11.825 11.825 0 0 0-3.648-1.703c-1.68-.45-3.423-.257-5.134-.546-3.293-.578-5.747-3.083-8.75-4.335-2.712-1.124-5.683-1.157-7.878.995-1.68 1.67-2.583 3.983-4.359 5.524-1.195 1.028-2.55 1.124-4.1 1.028-1.292-.064-2.52 0-3.714.514-2.744 1.188-4.455 3.5-6.36 5.556h1.291Zm129.151 20.234a34.765 34.765 0 0 1-3.68 3.854c-2.325 2.087-5.296 4.528-8.654 4.336-1.711-.097-3.261-1.092-4.972-.9-1.582.193-3.003 1.06-4.488 1.606-2.583.996-5.037.546-7.458-.61-2.454-1.156-4.682-2.859-7.297-3.597-1.486-.418-2.906-.321-4.359.064-1.518.417-3.035.964-4.65.835-3.132-.225-5.424-2.312-7.555-4.529l.484-.93c1.001 1.027 2.034 2.055 3.197 2.89.904.642 1.872 1.188 2.938 1.445 1.485.353 2.938.032 4.391-.386 1.485-.417 2.938-.802 4.488-.61 1.227.16 2.422.578 3.552 1.092 2.389 1.124 4.552 2.762 7.103 3.565 1.292.418 2.615.514 3.907.16 1.517-.417 2.906-1.252 4.391-1.701 1.614-.482 3.003-.257 4.585.224 1.84.546 3.487.45 5.231-.385 2.97-1.445 5.521-3.982 7.652-6.455l1.194.032Z" fill="#22B373"/><path d="M17.242 17.6h-.065l-4.133-6.584c-.258-.417-.42-.514-.904-.514H8.815c-.452 0-.55.064-.55.61v9.668h2.196c.388-.033.517-.065.84-.45l2.906-3.34h.064v8.158h-.064L11.3 21.84c-.323-.354-.452-.418-.872-.418H8.266v7.9c0 .386.032.483.355.74l2.97 2.248v.064H0v-.064l2.163-2.024c.259-.257.29-.353.29-.77V12.717c0-.417-.031-.514-.29-.77L0 9.924V9.86h17.242v7.74Zm14.529 6.295-.194 4.56c-.064 1.253.226 1.863.872 1.863.42 0 .71-.192.904-.578h.065c0 .29-.065.771-.258 1.156-.517 1.06-1.615 1.767-3.165 1.767-1.84 0-3.422-1.092-3.519-3.115-.646 1.862-2.292 3.115-4.391 3.115-2.357 0-4.391-1.574-4.391-4.529 0-3.18 2.777-4.85 5.424-4.85 1.389 0 2.55.258 3.423.868l.064-3.437v-.16c0-2.216-.678-3.694-2.357-3.694-.646 0-.678.032-.872.386l-2.615 4.817h-.064l-2.035-4.593c2.164-.77 4.456-1.22 6.49-1.22 2.163 0 3.842.386 5.005 1.477 1.033.964 1.614 2.538 1.614 5.01.032.322 0 1.06 0 1.157Zm-9.008 3.661c0 1.767.807 2.73 1.905 2.73.71 0 1.42-.482 1.84-1.124v-.032l.065-4.69a3.723 3.723 0 0 0-1.195-.192c-1.679 0-2.615 1.445-2.615 3.308Zm28.09 2.505c0 .418.033.514.29.771l1.615 1.477v.065h-9.04v-.065l1.55-1.477c.258-.257.29-.385.29-.739 0-.481.097-4.817.097-6.327 0-2.922-.452-4.85-2.454-4.85-1.033 0-1.808.579-2.39 1.414v9.731c0 .418 0 .514.291.771l1.582 1.477v.065h-9.008v-.065l1.582-1.477c.29-.257.29-.353.29-.77V18.98c0-.418-.031-.514-.29-.803l-1.582-1.606v-.064h7.136v3.404c.807-2.248 2.518-3.66 5.134-3.66 3.228 0 5.036 2.344 5.036 6.744-.032 1.99-.096 4.528-.129 7.065Zm12.14-12.911h-3.97v10.695c0 1.446.645 2.28 1.71 2.28.84 0 1.518-.545 1.873-1.188l.065.032c-.323 1.799-1.647 3.662-4.714 3.662-2.81 0-4.198-1.51-4.198-4.4V17.15h-1.776v-.643h1.453c.517 0 .678 0 1.001-.353l4.52-5.043h.065v5.396h3.971v.642Zm14.337 6.745-.194 4.56c-.065 1.253.226 1.863.871 1.863.42 0 .71-.192.904-.578h.065c0 .29-.065.771-.258 1.156-.517 1.06-1.615 1.767-3.165 1.767-1.84 0-3.422-1.092-3.519-3.115-.646 1.862-2.292 3.115-4.391 3.115-2.357 0-4.391-1.574-4.391-4.529 0-3.18 2.777-4.85 5.424-4.85 1.389 0 2.55.258 3.423.868l.064-3.437v-.16c0-2.216-.678-3.694-2.357-3.694-.645 0-.678.032-.871.386l-2.616 4.817h-.064l-2.002-4.593c2.163-.77 4.456-1.22 6.49-1.22 2.163 0 3.842.386 5.004 1.477 1.033.964 1.615 2.538 1.615 5.01 0 .322-.033 1.06-.033 1.157Zm-9.041 3.661c0 1.767.807 2.73 1.905 2.73.71 0 1.42-.482 1.84-1.124v-.032l.065-4.69a3.723 3.723 0 0 0-1.195-.192c-1.679 0-2.615 1.445-2.615 3.308Zm17.048-.674-2.196-1.028c-1.776-.835-3.132-2.28-3.132-4.56 0-3.052 2.519-5.075 6.587-5.075 1.582 0 3.584.225 5.65.867l-1.808 4.657h-.032l-2.519-4.464c-.193-.321-.29-.482-.742-.482h-.452c-1.42 0-2.615.739-2.615 2.248 0 1.413 1.065 2.088 2.97 2.923l2.066.9c2.002.866 3.584 1.958 3.584 4.431 0 3.469-2.938 5.332-7.2 5.332-1.84 0-4.1-.354-5.909-.996l1.776-4.978h.065l2.583 4.978c.13.257.323.418.678.418h.743c1.872 0 3.035-.964 3.035-2.345-.065-1.317-1.066-1.863-3.132-2.826Zm16.951 4.882c-.743 1.734-1.711 3.66-2.777 5.33-1.324 2.056-2.55 2.86-4.488 2.86-.484 0-1-.097-1.517-.322l1.194-5.588h.065l3.196 3.147c.162.16.258.257.388.257.161 0 .29-.096.484-.385.42-.578.904-1.478 1.227-2.216l.194-.514-5.974-15.16c-.161-.417-.323-.738-.484-1.06l-.872-1.54v-.065h8.331v.064l-1.292 1.767c-.161.225-.226.353-.064.738l3.261 8.96 2.615-6.294c.226-.546.258-.674 0-1.188l-1.97-3.983v-.064h5.522v.064l-2.099 3.597c-.388.643-.549 1.028-.807 1.67l-4.133 9.925Zm14.658-14.614v12.72c0 .417.033.514.485.803l2.389 1.637v.065h-9.977v-.065l1.582-1.477c.259-.257.291-.353.291-.77V17.15h-1.711v-.642h1.711c0-5.106 2.325-6.97 6.199-6.97 1.84 0 3.455.258 5.102.707l-2.035 4.818h-.064l-2.26-4.529c-.194-.385-.259-.417-.549-.417-.775 0-1.163.738-1.163 2.987v3.436h3.94v.643h-3.94v-.033Z" fill="#fff"/><path d="M119.691 24.409c0-5.396 3.39-8.158 8.459-8.158 5.102 0 8.492 2.762 8.492 8.19 0 5.396-3.422 8.158-8.492 8.158-5.069.032-8.459-2.73-8.459-8.19Zm5.844 0c0 6.166 1.001 7.611 2.615 7.611 1.615 0 2.616-1.38 2.616-7.58 0-6.166-1.001-7.579-2.616-7.579-1.614 0-2.615 1.35-2.615 7.548Zm28.704 5.652c0 .418.032.514.29.771l1.615 1.477v.065h-9.041v-.065l1.55-1.477c.258-.257.291-.385.291-.739 0-.481.097-4.817.097-6.327 0-2.922-.452-4.85-2.454-4.85-1.034 0-1.808.579-2.39 1.414v9.731c0 .418 0 .514.291.771l1.582 1.477v.065h-9.008v-.065l1.582-1.477c.29-.257.29-.353.29-.77V18.98c0-.418-.032-.514-.29-.803l-1.582-1.606v-.064h7.135v3.404c.808-2.248 2.519-3.66 5.134-3.66 3.229 0 5.037 2.344 5.037 6.744-.032 1.99-.097 4.528-.129 7.065Zm18.307-.096c0 .418 0 .514.291.77l1.614 1.575v.064h-7.136v-3.02c-.968 2.217-2.679 3.277-4.746 3.277-3.681 0-6.328-2.89-6.328-8.126 0-4.946 2.906-8.222 6.909-8.222 2.099 0 3.455.996 4.165 2.57v-6.649c0-.417-.032-.546-.322-.803l-1.55-1.477V9.86l7.103-.835v20.94Zm-5.263-.963V19.11c-.452-.579-1.227-.996-2.099-.996-1.743 0-3.422 1.574-3.422 6.198 0 4.368 1.453 5.878 3.261 5.878.807.032 1.614-.354 2.26-1.189Z" fill="#fff"/><path d="M163.764 11.594h-1.292v2.698h1.292v-2.698Zm-37.228-9.442h-1.292v12.172h1.292V2.152Z" fill="#0095D4"/></svg>